<?xml version="1.0" encoding="UTF-8"?>
<svg id="Layer_1" data-name="Layer 1" xmlns="http://www.w3.org/2000/svg" viewBox="0 0 185.046 185.046">
  <defs>
    <style>
      .cls-1 {
        fill: #fff;
      }

      .cls-2 {
        fill: #149cf4;
      }
    </style>
  </defs>
  <g>
    <circle class="cls-2" cx="92.523" cy="92.523" r="92.523"/>
    <g>
      <path class="cls-1" d="m145.134,75.137h0c-.756-.151-1.361-.454-1.814-.907-.605-.454-1.058-1.058-1.361-1.814-.454-.756-.605-1.663-.605-2.872v-16.025c0-1.814-.302-3.477-.907-4.838s-1.361-2.419-2.268-3.326c-1.058-.907-2.117-1.512-3.326-1.965-1.209-.454-2.57-.605-3.931-.605h-34.469v-3.326c4.687-1.663,8.013-6.198,8.013-11.339,0-6.652-5.443-12.095-12.095-12.095s-12.095,5.443-12.095,12.095c0,5.291,3.326,9.676,8.013,11.49v3.326h-34.016c-1.361,0-2.721.151-3.931.605s-2.419,1.058-3.326,1.965c-1.058.907-1.814,1.965-2.268,3.326-.605,1.361-.907,2.872-.907,4.838v16.176c0,1.209-.151,2.117-.605,2.872s-.907,1.361-1.361,1.814c-.605.454-1.209.756-1.814.907h0c-1.058.302-1.814,1.209-1.814,2.268v3.175c0,1.058.756,1.965,1.814,2.268h0c.756.151,1.361.454,1.814.907.605.454,1.058,1.058,1.361,1.965.454.756.605,1.814.605,3.175v16.63c0,1.814.302,3.477.907,4.838.605,1.361,1.361,2.419,2.268,3.326,1.058.907,2.117,1.512,3.326,1.965s2.57.605,3.931.605h65.462c1.512,0,2.872.302,3.326,1.361.454,1.058.302,2.268.302,3.477v24.038c0,1.209,0,2.117-.454,3.175s-1.512,1.663-3.175,1.663h-53.065c-1.512,0-2.872-.605-3.175-1.663-.454-1.058-.302-2.117-.302-3.326v-7.106h0s.151-4.535-4.233-4.535c-4.233,0-4.082,4.233-4.082,4.535h0v8.013c0,1.814.302,3.477.907,4.838.605,1.361,1.361,2.419,2.268,3.326,1.058.907,2.117,1.512,3.326,1.965,1.209.454,2.57.605,3.931.605h56.088c1.361,0,2.721-.151,3.931-.605,1.209-.454,2.419-1.058,3.326-1.965,1.058-.907,1.814-1.965,2.268-3.326.605-1.361.907-2.872.907-4.838v-26.003c0-1.814-.302-3.477-.907-4.838-.605-1.361-1.361-2.419-2.268-3.326-1.058-.907-2.117-1.512-3.326-1.965-1.209-.454-2.57-.605-3.931-.605H55.937c-1.512,0-3.024-1.058-3.477-1.965-.454-1.058-.151-8.92-.151-10.129v-8.769c0-1.965-.302-3.477-.907-4.687s-1.361-2.117-2.117-2.872-1.663-1.209-2.57-1.512-1.663-.454-2.419-.605v-.151c.605,0,1.512-.302,2.419-.605.907-.454,1.814-.907,2.57-1.663.756-.756,1.512-1.663,2.117-2.721s.907-2.419.907-4.082v-15.269c0-1.209,0-2.419.302-3.477.454-1.058,1.512-1.512,3.326-1.361h73.625c1.512,0,2.721.454,3.175,1.512.454,1.058.454,2.268.454,3.477v15.421c0,1.512.302,2.872.907,4.082.605,1.058,1.361,1.965,2.117,2.721s1.663,1.209,2.57,1.663c.907.454,1.663.605,2.419.605v.151c-.605,0-1.512.302-2.419.605s-1.814.756-2.57,1.512-1.512,1.663-2.117,2.872-.907,2.721-.907,4.687v10.734s0,3.931,4.233,3.931c4.384,0,4.233-3.931,4.233-3.931v-10.432c0-1.361.151-2.419.605-3.175s.907-1.512,1.361-1.965c.605-.454,1.209-.756,1.814-.907h0c1.058-.302,1.814-1.209,1.814-2.268v-3.175c-.302-1.361-1.058-2.268-2.117-2.57h0Zm-52.762-51.251c2.117,0,3.931,1.814,3.931,3.931s-1.814,3.931-3.931,3.931-3.931-1.814-3.931-3.931,1.814-3.931,3.931-3.931Z"/>
      <path class="cls-1" d="m102.35,72.567c0,3.931,3.175,7.257,7.257,7.257,3.931,0,7.257-3.175,7.257-7.257,0-3.931-3.175-7.257-7.257-7.257s-7.257,3.175-7.257,7.257Z"/>
      <path class="cls-1" d="m68.183,72.567c0,3.931,3.175,7.257,7.257,7.257,3.931,0,7.257-3.175,7.257-7.257,0-3.931-3.175-7.257-7.257-7.257-3.931.151-7.257,3.326-7.257,7.257Z"/>
    </g>
  </g>
</svg>